<svg width="61" height="64" viewBox="0 0 61 64" fill="none" xmlns="http://www.w3.org/2000/svg">
<path d="M26.8533 62.2858C20.462 60.8001 12.8152 55.4286 9.39131 50.0572C5.73913 44.3429 4.14131 35.0858 5.85326 29.7143L6.88044 26.2858L7.1087 30.8572C7.45109 41.7143 13.0435 50.1715 23.2011 55.3143C35.1848 61.2572 46.3696 59.8858 55.5 51.0858L59.837 46.8572L58.125 50.4001C53.2174 60.0001 39.2935 65.2572 26.8533 62.2858Z" fill="#E2E5E3"/>
<path d="M44.2011 53.2572C52.1902 49.6 58.4674 40.6857 58.4674 33.2571C58.4674 25.0286 52.6467 16.9143 44.2011 13.0286C40.8913 11.4286 40.3207 10.8571 42.1467 10.8571C52.1902 10.7429 60.75 21.0286 60.75 33.1429C60.75 43.2 56.413 50.0572 47.8533 53.7143C41.9185 56.1143 38.7228 55.7714 44.2011 53.2572Z" fill="#E2E5E3"/>
<path d="M25.3695 48.3429C18.6358 44.9143 15.0978 39.5429 15.0978 32.6858C15.0978 14.7429 37.6956 7.42861 47.7391 22.1715C51.3913 27.6572 51.5054 36.3429 47.9674 41.7143C42.0326 50.2857 33.8152 52.6857 25.3695 48.3429ZM42.6032 19.7715C40.4347 17.8286 37.6956 16.5715 35.6413 16.5715C30.8478 16.5715 30.3913 18.5143 35.0706 19.3143C37.2391 19.7715 40.4347 21.6 42.1467 23.3143C44.6576 25.9429 45.4565 26.1715 45.7989 24.8C46.0271 23.7715 44.5434 21.4858 42.6032 19.7715Z" fill="#E2E5E3"/>
<path d="M0.831496 36.8C-2.70655 19.3143 11.2174 2.17144 30.0489 0.800011C41.4619 1.11461e-05 51.6195 4.9143 57.4402 13.9429C62.2337 21.7143 61.5489 22.2857 55.5 15.5429C51.2771 10.8572 48.9945 9.37144 43.8587 7.88573C35.9837 5.60001 26.5108 6.28573 20.0054 9.48573C9.16302 15.0857 4.14128 22.1714 2.65758 34.1714L1.74454 41.1429L0.831496 36.8Z" fill="#E2E5E3"/>
<path d="M24.3425 60.9144C13.386 56.8001 5.73922 46.5144 6.08161 36.4572L6.19574 33.1429L6.99465 36.5715C9.39139 46.0572 16.3533 53.7144 26.3968 57.7144C34.7283 61.0287 47.3968 59.0858 54.4729 53.2572C55.9566 52.1144 55.7284 52.5715 53.9023 54.7429C47.511 62.1715 34.7283 64.8001 24.3425 60.9144Z" fill="white"/>
<path d="M46.4838 52.9143C50.136 50.9715 55.1577 45.9429 56.8697 42.6286C57.7827 40.9143 58.4675 36.6858 58.4675 33.1429C58.4675 29.6001 57.7827 25.3715 56.8697 23.6572C55.1577 20.3429 50.2501 15.4286 46.4838 13.2572C44.4294 12.0001 44.4294 12.0001 47.0544 12.6858C50.5925 13.6001 55.8425 18.4001 58.2392 22.8572C59.2664 24.9143 59.9512 29.0286 59.9512 33.4858C59.9512 39.2001 59.2664 41.4858 56.8697 45.2572C54.0164 49.4858 47.8533 54.2858 45.3425 54.2858C44.7718 54.2858 45.2283 53.6001 46.4838 52.9143Z" fill="white"/>
<path d="M27.6522 49.0287C18.5217 45.0287 13.8424 36.6858 16.125 28.3429C18.2935 20.3429 22.5163 16.5715 31.0761 14.9715L35.0707 14.1715L32.2174 16.3429L29.4783 18.6287L34.5 20.0001C37.2391 20.6858 40.8913 22.8572 42.6033 24.6858C44.3152 26.5144 46.0272 28.0001 46.3696 28.0001C47.9674 28.0001 46.8261 23.4287 44.5435 20.4572C42.4891 17.8287 42.4891 17.4858 44.087 18.8572C45.3424 19.7715 47.2826 22.7429 48.4239 25.4858C52.5326 34.6287 48.4239 44.2287 38.4946 48.6858C33.0163 51.2001 32.6739 51.2001 27.6522 49.0287Z" fill="white"/>
<path d="M1.97287 26.4001C3.22831 14.7429 12.0164 5.60005 25.3696 2.17148C37.3533 -0.914236 49.4511 3.42862 56.1848 13.3715L58.8098 17.1429L54.9294 13.4858C49.5653 8.45719 43.2881 6.05719 35.0707 6.05719C19.6631 5.94291 7.337 14.0572 2.88592 27.2001L1.40222 32L1.97287 26.4001Z" fill="white"/>
<path d="M37.125 15.7714C37.5815 15.4286 38.2663 15.4286 38.7228 15.7714C39.0652 16.2286 38.7228 16.5714 37.9239 16.5714C37.125 16.5714 36.7826 16.2286 37.125 15.7714Z" fill="white"/>
</svg>
